<svg width="11" height="7" viewBox="0 0 11 7" fill="none" xmlns="http://www.w3.org/2000/svg">
<g clip-path="url(#clip0_18002_399)">
<path d="M5.97743 6.5C5.97353 6.5 5.96963 6.5 5.96573 6.5C5.96182 6.5 5.95792 6.5 5.95402 6.5C5.82134 6.5 5.69646 6.47266 5.57939 6.41797C5.46232 6.36328 5.36281 6.29102 5.28086 6.20117L1.2829 2.19922C1.19315 2.11328 1.12096 2.00977 1.06632 1.88867C1.01169 1.76758 0.984375 1.63867 0.984375 1.50195C0.984375 1.36133 1.01169 1.23145 1.06632 1.1123C1.12096 0.993164 1.19315 0.888672 1.2829 0.798828C1.37266 0.708984 1.47705 0.636719 1.59607 0.582031C1.71509 0.527344 1.84484 0.5 1.98533 0.5C2.12191 0.5 2.25069 0.527344 2.37166 0.582031C2.49263 0.636719 2.59605 0.708984 2.6819 0.798828L5.97743 4.09766L9.27882 0.798828C9.36467 0.708984 9.46809 0.636719 9.58906 0.582031C9.71003 0.527344 9.83881 0.5 9.97539 0.5C10.112 0.5 10.2408 0.527344 10.3617 0.582031C10.4827 0.636719 10.5861 0.708984 10.672 0.798828C10.7656 0.888672 10.8398 0.993164 10.8944 1.1123C10.949 1.23145 10.9763 1.36133 10.9763 1.50195C10.9763 1.63867 10.949 1.76758 10.8944 1.88867C10.8398 2.00977 10.7676 2.11328 10.6778 2.19922H10.672L6.67986 6.20117C6.59401 6.29102 6.49352 6.36328 6.3784 6.41797C6.26328 6.47266 6.13938 6.5 6.0067 6.5C6.0028 6.5 5.99792 6.5 5.99207 6.5C5.98621 6.5 5.98134 6.5 5.97743 6.5Z" fill="#808080"/>
</g>
<defs>
<clipPath id="clip0_18002_399">
<rect width="10.01" height="6" fill="white" transform="matrix(1 0 0 -1 0.976562 6.5)"/>
</clipPath>
</defs>
</svg>
