<svg width="21" height="20" viewBox="0 0 21 20" fill="none" xmlns="http://www.w3.org/2000/svg">
<g clip-path="url(#clip0_18002_405)">
<path d="M3.83594 2.92969C3.38021 3.38542 2.97005 3.88021 2.60547 4.41406C2.25391 4.94792 1.95117 5.51432 1.69727 6.11328C1.44336 6.71224 1.24479 7.33724 1.10156 7.98828C0.971354 8.63932 0.90625 9.3099 0.90625 10C0.90625 11.3802 1.16667 12.6758 1.6875 13.8867C2.20833 15.1107 2.92122 16.1751 3.82617 17.0801C4.73112 17.985 5.79557 18.6979 7.01953 19.2188C8.23047 19.7396 9.52604 20 10.9062 20C12.2865 20 13.582 19.7396 14.793 19.2188C16.0169 18.6979 17.0814 17.985 17.9863 17.0801C18.8913 16.1751 19.6042 15.1107 20.125 13.8867C20.6458 12.6758 20.9062 11.3802 20.9062 10C20.9062 9.3099 20.8411 8.63932 20.7109 7.98828C20.5677 7.33724 20.3691 6.71224 20.1152 6.11328C19.8613 5.51432 19.5586 4.94792 19.207 4.41406C18.8424 3.88021 18.4323 3.38542 17.9766 2.92969C17.5208 2.47396 17.026 2.0638 16.4922 1.69922C15.9583 1.34766 15.3919 1.04492 14.793 0.791016C14.194 0.537109 13.569 0.338541 12.918 0.195312C12.2669 0.0651035 11.5964 0 10.9062 0C10.2161 0 9.54557 0.0651035 8.89453 0.195312C8.24349 0.338541 7.61849 0.537109 7.01953 0.791016C6.42057 1.04492 5.85417 1.34766 5.32031 1.69922C4.78646 2.0638 4.29167 2.47396 3.83594 2.92969ZM15.5742 5.99609V11.6602C15.5742 11.6602 15.5742 11.6634 15.5742 11.6699C15.5742 11.6764 15.5742 11.6797 15.5742 11.6797C15.5742 11.862 15.5091 12.0182 15.3789 12.1484C15.2487 12.2786 15.0924 12.3438 14.9102 12.3438C14.7279 12.3438 14.5716 12.2786 14.4414 12.1484C14.3112 12.0182 14.2461 11.862 14.2461 11.6797C14.2461 11.6797 14.2461 11.6764 14.2461 11.6699C14.2461 11.6634 14.2461 11.6602 14.2461 11.6602V7.61719L6.90234 14.9609C6.83724 15.026 6.76237 15.0749 6.67773 15.1074C6.5931 15.14 6.50521 15.1562 6.41406 15.1562C6.23177 15.1562 6.07552 15.0911 5.94531 14.9609C5.8151 14.8307 5.75 14.6745 5.75 14.4922C5.75 14.401 5.76628 14.3132 5.79883 14.2285C5.83138 14.1439 5.88021 14.069 5.94531 14.0039L13.2891 6.66016H9.24609C9.0638 6.66016 8.91081 6.59505 8.78711 6.46484C8.66341 6.33464 8.60156 6.17839 8.60156 5.99609C8.60156 5.8138 8.66341 5.66081 8.78711 5.53711C8.91081 5.41341 9.0638 5.34505 9.24609 5.33203H14.9102C15.0924 5.33203 15.2487 5.39714 15.3789 5.52734C15.5091 5.65755 15.5742 5.8138 15.5742 5.99609Z" fill="#4071D9"/>
</g>
<defs>
<clipPath id="clip0_18002_405">
<rect width="20" height="20" fill="white" transform="matrix(1 0 0 -1 0.90625 20)"/>
</clipPath>
</defs>
</svg>
