<svg width="25" height="23" viewBox="0 0 25 23" fill="none" xmlns="http://www.w3.org/2000/svg">
<path fill-rule="evenodd" clip-rule="evenodd" d="M11.3893 0.938422C10.4585 2.04461 9.79095 4.25544 9.98147 5.60144C10.2188 7.2781 11.3735 9.59477 11.972 9.59477C12.2906 9.59477 13.1823 8.41782 13.6109 7.43153C13.9175 6.72616 13.981 6.31901 13.9848 5.03652C13.9892 3.60353 13.9524 3.41286 13.478 2.40973C12.9576 1.30911 12.3071 0.478271 11.9656 0.478271C11.8616 0.478271 11.6022 0.685324 11.3893 0.938422ZM11.4274 2.49317C10.9548 3.41239 10.9135 3.60739 10.9066 4.95926C10.8998 6.30124 10.9419 6.51757 11.3984 7.48113C11.6841 8.08452 11.9661 8.49276 12.058 8.43589C12.2708 8.3044 12.9117 7.01109 13.0534 6.42717C13.3862 5.0563 12.9714 2.76759 12.2224 1.84281L11.9407 1.49484L11.4274 2.49317ZM4.54634 5.51537C4.39089 6.13483 4.69282 7.71986 5.16131 8.74308C5.93653 10.4363 8.08369 12.0851 9.82433 12.3237C10.4501 12.4095 10.5039 12.3884 10.596 12.0212C10.9209 10.7265 9.81506 7.93727 8.52005 6.78503C7.69447 6.05062 6.14389 5.27463 5.2667 5.15704C4.69776 5.08071 4.6494 5.10466 4.54634 5.51537ZM17.5945 5.47767C15.0346 6.54136 13.3526 8.96156 13.4793 11.3988C13.5343 12.4567 13.6506 12.519 14.8967 12.1567C17.5153 11.3955 19.5767 8.6465 19.4442 6.09249C19.3988 5.21422 19.3857 5.19011 18.934 5.15241C18.6791 5.13109 18.0763 5.27757 17.5945 5.47767ZM5.46355 6.82475C5.69687 8.79468 7.39038 10.7424 9.41486 11.3694C9.78106 11.4828 9.78369 11.4759 9.67707 10.6727C9.41455 8.69378 7.70219 6.7138 5.73782 6.11768C5.37069 6.00627 5.3676 6.01415 5.46355 6.82475ZM17.6412 6.36212C16.0566 7.06533 14.8855 8.48797 14.4153 10.2807C14.2715 10.8295 14.1919 11.3166 14.2386 11.3632C14.4076 11.5323 15.7069 10.9687 16.4618 10.399C17.5882 9.54873 18.2546 8.36064 18.6245 6.54306C18.7457 5.94833 18.6241 5.92592 17.6412 6.36212ZM0.0566935 11.3842C-0.115902 11.8343 0.128543 13.8335 0.480224 14.8483C1.13708 16.7433 2.04579 18.1332 3.49701 19.4632C4.75169 20.6129 5.97438 21.3127 7.80881 21.9309C8.57382 22.1888 9.31597 22.4444 9.45812 22.4989C9.63165 22.5655 9.77658 22.4861 9.89896 22.2574C10.1275 21.8304 10.0575 21.7821 8.42688 21.244C6.33116 20.5525 5.1522 19.8538 3.77422 18.4868C1.89885 16.6262 1.07202 14.7054 0.628561 11.1786C0.608474 11.0188 0.131171 11.1905 0.0566935 11.3842ZM1.61515 11.3155C1.33517 11.7685 1.71837 14.0308 2.28684 15.2811C2.86983 16.5635 4.45177 18.5568 4.88627 18.5568C4.98563 18.5568 5.15421 18.4515 5.26098 18.323C5.42353 18.127 5.33113 17.9583 4.69035 17.28C3.34806 15.8592 2.73092 14.5461 2.42281 12.4549C2.28622 11.5279 2.1779 11.2082 1.98754 11.1716C1.84816 11.1447 1.68067 11.2095 1.61515 11.3155ZM3.11489 11.349C2.82409 11.6994 3.17732 13.5104 3.79044 14.8122C4.24704 15.7816 5.71773 17.6405 6.01564 17.6247C6.06709 17.6221 6.24139 17.5196 6.40317 17.3973C6.68362 17.185 6.66245 17.1389 5.94348 16.3977C4.68525 15.1007 4.1174 13.8859 3.88609 11.9955C3.78627 11.1801 3.47306 10.9174 3.11489 11.349ZM4.65465 11.3555C4.38719 11.6778 4.8325 13.6006 5.40746 14.6054C5.9546 15.5619 6.96329 16.5408 7.88715 17.012C8.55095 17.3508 10.515 17.8335 10.6559 17.6927C10.8236 17.525 10.6521 16.0332 10.3743 15.2428C10.0796 14.4043 9.35537 13.2255 8.90541 12.8521C8.61044 12.6072 8.1951 12.738 8.1951 13.0756C8.1951 13.2108 8.40045 13.5779 8.65154 13.8917C9.12128 14.4786 9.62763 15.5288 9.80177 16.2776C9.92523 16.8084 9.62191 16.8396 8.59885 16.4011C7.07964 15.7498 5.72855 13.9668 5.48595 12.2931C5.33113 11.2252 5.0377 10.8941 4.65465 11.3555ZM18.7424 11.3331C18.6587 11.4394 18.5497 11.8858 18.5005 12.3254C18.3846 13.3565 17.8248 14.4466 16.9854 15.2761C16.2882 15.9649 14.9925 16.7026 14.4798 16.7026C14.2231 16.7026 14.1936 16.6242 14.2707 16.1491C14.3908 15.4088 14.9387 14.3038 15.5064 13.6573C15.9145 13.1925 15.9421 13.1035 15.7406 12.9021C15.3957 12.5572 15.0615 12.7766 14.3823 13.7938C13.6732 14.8556 13.4644 15.4633 13.3394 16.8296L13.2501 17.8064L13.8515 17.7051C15.5741 17.4146 16.7215 16.8157 17.8125 15.6373C18.7146 14.6629 19.2506 13.5462 19.4242 12.2793C19.5448 11.3989 19.1368 10.8326 18.7424 11.3331ZM20.2783 11.3254C20.1763 11.4273 20.0929 11.7688 20.0929 12.0842C20.0929 13.4748 19.102 15.5478 17.9318 16.6049C17.3731 17.1097 17.3538 17.1564 17.6072 17.3857C17.7554 17.5199 17.9556 17.6297 18.052 17.6297C18.3571 17.6297 19.8172 15.7376 20.2879 14.7325C20.8517 13.5285 21.1649 11.7327 20.8726 11.3804C20.6328 11.0914 20.5225 11.0812 20.2783 11.3254ZM21.8328 11.3331C21.749 11.4394 21.6382 11.9522 21.5865 12.473C21.3998 14.35 20.5733 16.0462 19.1718 17.4277C18.5 18.0901 18.4835 18.1277 18.7707 18.3376C18.9356 18.4582 19.1204 18.5568 19.1814 18.5568C19.4149 18.5568 20.6591 17.1162 21.2181 16.1985C22.1699 14.6364 22.8462 11.8965 22.4097 11.3705C22.1763 11.0894 22.0322 11.08 21.8328 11.3331ZM23.3778 11.3331C23.294 11.4394 23.1849 11.9782 23.1353 12.5306C22.9385 14.7235 21.949 16.8144 20.3247 18.4698C19.1363 19.681 17.8546 20.4535 15.9631 21.0986C13.7653 21.8483 13.9028 21.7664 14.1035 22.2069C14.2185 22.4594 14.3575 22.5549 14.5192 22.4928C14.6528 22.4415 15.3183 22.2208 15.9982 22.0023C19.1669 20.9845 21.4037 19.1892 22.7749 16.5633C23.7546 14.687 24.4348 11.5948 23.937 11.2796C23.6494 11.0974 23.5567 11.1063 23.3778 11.3331Z" fill="white"/>
</svg>
