<svg width="37" height="35" viewBox="0 0 37 35" fill="none" xmlns="http://www.w3.org/2000/svg">
<path fill-rule="evenodd" clip-rule="evenodd" d="M17.4825 1.28836C16.0537 2.98636 15.0291 6.37998 15.3216 8.44609C15.6859 11.0198 17.4583 14.5759 18.377 14.5759C18.866 14.5759 20.2348 12.7692 20.8928 11.2553C21.3633 10.1725 21.4608 9.54757 21.4667 7.57895C21.4734 5.37931 21.4169 5.08662 20.6888 3.54683C19.89 1.85737 18.8914 0.582031 18.3672 0.582031C18.2076 0.582031 17.8094 0.899856 17.4825 1.28836ZM17.5411 3.6749C16.8156 5.08591 16.7523 5.38523 16.7416 7.46035C16.7311 9.52029 16.7959 9.85235 17.4965 11.3314C17.9351 12.2576 18.3679 12.8843 18.5091 12.797C18.8357 12.5951 19.8195 10.6099 20.037 9.7136C20.5479 7.6093 19.9111 4.09614 18.7614 2.6766L18.329 2.14246L17.5411 3.6749ZM6.97863 8.31398C6.74002 9.26485 7.20348 11.6979 7.92262 13.2685C9.11257 15.8676 12.4085 18.3985 15.0803 18.7648C16.0409 18.8964 16.1235 18.8641 16.2648 18.3004C16.7636 16.313 15.0661 12.0316 13.0783 10.2629C11.811 9.13558 9.43087 7.94444 8.08438 7.76395C7.21107 7.64678 7.13683 7.68354 6.97863 8.31398ZM27.0076 8.2561C23.0782 9.88888 20.4962 13.6039 20.6907 17.345C20.7751 18.969 20.9537 19.0646 22.8664 18.5084C26.8859 17.34 30.0502 13.1203 29.8469 9.19986C29.7772 7.85171 29.757 7.81471 29.0637 7.75683C28.6724 7.7241 27.7471 7.94895 27.0076 8.2561ZM8.38655 10.3239C8.7447 13.3477 11.3442 16.3374 14.4518 17.2999C15.0139 17.474 15.018 17.4633 14.8543 16.2305C14.4513 13.1928 11.8229 10.1536 8.80755 9.23852C8.244 9.06751 8.23926 9.07961 8.38655 10.3239ZM27.0792 9.61374C24.6469 10.6932 22.8493 12.8769 22.1275 15.6287C21.9067 16.4712 21.7846 17.2188 21.8562 17.2904C22.1157 17.5499 24.1102 16.6849 25.2688 15.8104C26.9979 14.5052 28.0208 12.6815 28.5887 9.89148C28.7746 8.97857 28.5879 8.94417 27.0792 9.61374ZM0.0870246 17.3227C-0.177909 18.0136 0.197314 21.0823 0.737144 22.6401C1.74541 25.5489 3.14029 27.6824 5.36792 29.7238C7.29385 31.4887 9.17068 32.5629 11.9865 33.5119C13.1608 33.9077 14.3 34.3 14.5182 34.3838C14.7846 34.486 15.0071 34.3641 15.1949 34.0131C15.5457 33.3575 15.4383 33.2835 12.9353 32.4574C9.71834 31.396 7.90863 30.3234 5.79342 28.2251C2.91473 25.3691 1.64556 22.4207 0.964842 17.007C0.934008 16.7617 0.201347 17.0253 0.0870246 17.3227ZM2.47926 17.2171C2.04948 17.9126 2.6377 21.3852 3.51029 23.3044C4.40519 25.2728 6.83347 28.3325 7.50043 28.3325C7.65294 28.3325 7.91171 28.171 8.0756 27.9736C8.32512 27.6729 8.18328 27.4139 7.19968 26.3727C5.13927 24.1918 4.19196 22.1762 3.71902 18.9661C3.50935 17.5433 3.34308 17.0525 3.05087 16.9963C2.83693 16.955 2.57982 17.0544 2.47926 17.2171ZM4.78136 17.2686C4.33498 17.8065 4.87718 20.5863 5.81833 22.5846C6.51921 24.0727 8.77672 26.926 9.23401 26.9018C9.31299 26.8978 9.58053 26.7405 9.82886 26.5527C10.2594 26.2268 10.2269 26.1561 9.12324 25.0183C7.19186 23.0274 6.32021 21.1627 5.96515 18.261C5.81192 17.0094 5.33115 16.6061 4.78136 17.2686ZM7.1449 17.2786C6.73433 17.7733 7.41789 20.7248 8.30045 22.2672C9.14032 23.7354 10.6887 25.238 12.1068 25.9614C13.1257 26.4813 16.1406 27.2222 16.3569 27.0062C16.6142 26.7488 16.3509 24.4588 15.9245 23.2456C15.4722 21.9584 14.3605 20.149 13.6698 19.5759C13.217 19.2 12.5795 19.4006 12.5795 19.9189C12.5795 20.1264 12.8947 20.69 13.2801 21.1717C14.0012 22.0725 14.7784 23.6847 15.0457 24.834C15.2352 25.6488 14.7696 25.6967 13.1992 25.0236C10.8673 24.0238 8.79332 21.287 8.42094 18.7178C8.18328 17.0786 7.73287 16.5703 7.1449 17.2786ZM28.7696 17.2442C28.6411 17.4074 28.4739 18.0926 28.3982 18.7674C28.2203 20.3501 27.361 22.0234 26.0726 23.2966C25.0024 24.354 23.0134 25.4863 22.2264 25.4863C21.8325 25.4863 21.7872 25.366 21.9055 24.6367C22.0898 23.5004 22.9309 21.8043 23.8023 20.8119C24.4287 20.0984 24.4712 19.9618 24.1619 19.6525C23.6325 19.1231 23.1194 19.4599 22.0768 21.0213C20.9883 22.6512 20.6679 23.5841 20.476 25.6813L20.3389 27.1807L21.2621 27.0252C23.9062 26.5792 25.6675 25.6599 27.3423 23.8512C28.7269 22.3555 29.5497 20.6414 29.8161 18.6967C30.0013 17.3452 29.3749 16.4759 28.7696 17.2442ZM31.1272 17.2323C30.9707 17.3889 30.8426 17.913 30.8426 18.3971C30.8426 20.5318 29.3216 23.7138 27.5254 25.3364C26.6677 26.1113 26.6381 26.1829 27.027 26.5349C27.2545 26.741 27.5619 26.9094 27.7099 26.9094C28.1781 26.9094 30.4195 24.0051 31.1419 22.4622C32.0074 20.6141 32.4882 17.8575 32.0394 17.3168C31.6713 16.8732 31.502 16.8576 31.1272 17.2323ZM33.5133 17.2442C33.3847 17.4074 33.2147 18.1946 33.1352 18.9939C32.8487 21.8752 31.58 24.4787 29.4288 26.5994C28.3975 27.6162 28.3721 27.6738 28.813 27.9962C29.0661 28.1812 29.3498 28.3325 29.4435 28.3325C29.8019 28.3325 31.7117 26.1212 32.5698 24.7126C34.0308 22.3147 35.069 18.1089 34.3989 17.3016C34.0406 16.8701 33.8195 16.8557 33.5133 17.2442ZM35.8849 17.2442C35.7563 17.4074 35.5889 18.2344 35.5128 19.0823C35.2106 22.4485 33.6917 25.658 31.1984 28.199C29.3742 30.0583 27.4068 31.2439 24.5034 32.2342C21.1297 33.385 21.3408 33.2593 21.6489 33.9355C21.8254 34.323 22.0388 34.4696 22.2869 34.3743C22.4921 34.2955 23.5136 33.9568 24.5572 33.6215C29.4212 32.0591 32.8546 29.3033 34.9594 25.2726C36.4634 22.3925 37.5075 17.646 36.7433 17.1621C36.3019 16.8825 36.1596 16.896 35.8849 17.2442Z" fill="black"/>
</svg>
